
<svg width="500" height="272" xmlns="http://www.w3.org/2000/svg">
<rect width="500" height="272" rx="12" fill="#0f1724"/>
<text x="20" y="32" fill="#7aa2ff" font-size="18" font-weight="700"
      font-family="Segoe UI,Roboto,Helvetica,Arial">Varma-N's Top 5 Languages</text>

<text x="28" y="70" fill="#7ee6ff" font-size="13" font-family="Segoe UI,Roboto,Helvetica,Arial">Jupyter Notebook</text>
<rect x="130" y="60" width="330" height="12" rx="7" fill="#0b1220"/>
<rect x="130" y="60" width="307.75800000000004" height="12" rx="7" fill="#ff7a7a"/>
<text x="470" y="70" fill="#bfe6ff" font-size="12" font-family="Segoe UI,Roboto,Helvetica,Arial">93.26%</text>
<text x="28" y="104" fill="#7ee6ff" font-size="13" font-family="Segoe UI,Roboto,Helvetica,Arial">HTML</text>
<rect x="130" y="94" width="330" height="12" rx="7" fill="#0b1220"/>
<rect x="130" y="94" width="11.583" height="12" rx="7" fill="#e34c26"/>
<text x="470" y="104" fill="#bfe6ff" font-size="12" font-family="Segoe UI,Roboto,Helvetica,Arial">3.51%</text>
<text x="28" y="138" fill="#7ee6ff" font-size="13" font-family="Segoe UI,Roboto,Helvetica,Arial">Python</text>
<rect x="130" y="128" width="330" height="12" rx="7" fill="#0b1220"/>
<rect x="130" y="128" width="8.481" height="12" rx="7" fill="#3572A5"/>
<text x="470" y="138" fill="#bfe6ff" font-size="12" font-family="Segoe UI,Roboto,Helvetica,Arial">2.57%</text>
<text x="28" y="172" fill="#7ee6ff" font-size="13" font-family="Segoe UI,Roboto,Helvetica,Arial">Other</text>
<rect x="130" y="162" width="330" height="12" rx="7" fill="#0b1220"/>
<rect x="130" y="162" width="2.178" height="12" rx="7" fill="#6b7280"/>
<text x="470" y="172" fill="#bfe6ff" font-size="12" font-family="Segoe UI,Roboto,Helvetica,Arial">0.66%</text>
</svg>