
<svg width="500" height="150" xmlns="http://www.w3.org/2000/svg">
<defs>
    <linearGradient id="g1" x1="0%" y1="0%" x2="100%" y2="0%">
        <stop offset="0%" stop-color="#f472b6"/>
        <stop offset="100%" stop-color="#8b5cf6"/>
    </linearGradient>
    </defs>
<rect width="500" height="150" rx="12" fill="#0f1724"/>
<text x="20" y="32" fill="#7aa2ff" font-size="18"
      font-weight="700" font-family="Segoe UI,Roboto,Helvetica,Arial">
    Most Used Languages
</text>

<rect x="20" y="48" width="460" height="14" rx="8" fill="#0b1220"/>
<rect x="20" y="48" width="429.08799999999997" height="14" rx="8" fill="#ff7a7a"/>
<rect x="449.08799999999997" y="48" width="16.146" height="14" rx="8" fill="#e34c26"/>
<rect x="465.234" y="48" width="11.729999999999999" height="14" rx="8" fill="#3572A5"/>
<rect x="476.964" y="48" width="3.036" height="14" rx="8" fill="#6b7280"/>
<circle cx="26" cy="90" r="6" fill="#ff7a7a"/>
<text x="44" y="94" fill="white" font-size="13" font-family="Segoe UI,Roboto,Helvetica,Arial">Jupyter Notebook</text>
<text x="150" y="94" fill="#9aa4b2" font-size="12" font-family="Segoe UI,Roboto,Helvetica,Arial">93.28%</text>
<circle cx="26" cy="112" r="6" fill="#e34c26"/>
<text x="44" y="116" fill="white" font-size="13" font-family="Segoe UI,Roboto,Helvetica,Arial">HTML</text>
<text x="150" y="116" fill="#9aa4b2" font-size="12" font-family="Segoe UI,Roboto,Helvetica,Arial">3.51%</text>
<circle cx="26" cy="134" r="6" fill="#3572A5"/>
<text x="44" y="138" fill="white" font-size="13" font-family="Segoe UI,Roboto,Helvetica,Arial">Python</text>
<text x="150" y="138" fill="#9aa4b2" font-size="12" font-family="Segoe UI,Roboto,Helvetica,Arial">2.55%</text>
<circle cx="26" cy="156" r="6" fill="#6b7280"/>
<text x="44" y="160" fill="white" font-size="13" font-family="Segoe UI,Roboto,Helvetica,Arial">Other</text>
<text x="150" y="160" fill="#9aa4b2" font-size="12" font-family="Segoe UI,Roboto,Helvetica,Arial">0.66%</text>
</svg>