
<svg width="500" height="158" xmlns="http://www.w3.org/2000/svg">
<defs>
    <linearGradient id="g1" x1="0%" y1="0%" x2="100%" y2="0%">
        <stop offset="0%" stop-color="#f472b6"/>
        <stop offset="100%" stop-color="#8b5cf6"/>
    </linearGradient>
    </defs>

<rect width="500" height="158" rx="12" fill="#0f1724"/>

<text x="20" y="32" fill="#7aa2ff" font-size="18"
      font-weight="700" font-family="Segoe UI,Roboto,Helvetica,Arial">
    Overall Language Breakdown
</text>

<rect x="20" y="52" width="460" height="14" rx="8" fill="#0b1220"/>
<rect x="20" y="52" width="428.582" height="14" rx="8" fill="#DA5B0B"/>
<rect x="448.582" y="52" width="16.146" height="14" rx="8" fill="#E34C26"/>
<rect x="464.728" y="52" width="12.236" height="14" rx="8" fill="#3572A5"/>
<rect x="476.964" y="52" width="3.036" height="14" rx="8" fill="#6b7280"/>
<circle cx="396" cy="59.0" r="4" fill="#DA5B0B"/>
<circle cx="418" cy="59.0" r="4" fill="#E34C26"/>
<circle cx="440" cy="59.0" r="4" fill="#3572A5"/>
<circle cx="462" cy="59.0" r="4" fill="#6b7280"/>
<circle cx="20" cy="97" r="6" fill="#DA5B0B"/>
<text x="38" y="101" fill="white" font-size="13" font-family="Segoe UI,Roboto,Helvetica,Arial">Jupyter Notebook</text>
<text x="160" y="101" fill="#9aa4b2" font-size="12" font-family="Segoe UI,Roboto,Helvetica,Arial">93.17%</text>
<circle cx="260" cy="97" r="6" fill="#3572A5"/>
<text x="278" y="101" fill="white" font-size="13" font-family="Segoe UI,Roboto,Helvetica,Arial">Python</text>
<text x="400" y="101" fill="#9aa4b2" font-size="12" font-family="Segoe UI,Roboto,Helvetica,Arial">2.66%</text>
<circle cx="20" cy="121" r="6" fill="#E34C26"/>
<text x="38" y="125" fill="white" font-size="13" font-family="Segoe UI,Roboto,Helvetica,Arial">HTML</text>
<text x="160" y="125" fill="#9aa4b2" font-size="12" font-family="Segoe UI,Roboto,Helvetica,Arial">3.51%</text>
<circle cx="260" cy="121" r="6" fill="#6b7280"/>
<text x="278" y="125" fill="white" font-size="13" font-family="Segoe UI,Roboto,Helvetica,Arial">Other</text>
<text x="400" y="125" fill="#9aa4b2" font-size="12" font-family="Segoe UI,Roboto,Helvetica,Arial">0.66%</text>
</svg>