
<svg width="500" height="238" xmlns="http://www.w3.org/2000/svg">
<rect width="500" height="238" rx="12" fill="#0f1724"/>

<!-- Title -->
<text x="20" y="32" fill="#7aa2ff" 
      font-size="18" font-weight="700"
      font-family="Segoe UI,Roboto,Helvetica,Arial">
    Top 5 Languages
</text>

<circle cx="26" cy="64" r="5" fill="#DA5B0B" />
<text x="50" y="68" fill="white" font-size="13" font-family="Segoe UI,Roboto,Helvetica,Arial">Jupyter Notebook</text>
<rect x="160" y="60" width="270" height="12" rx="7" fill="#0b1220"/>
<rect x="160" y="60" width="248.292" height="12" rx="7" fill="#DA5B0B"/>
<text x="445" y="70" fill="#bfe6ff" font-size="12" font-family="Segoe UI,Roboto,Helvetica,Arial">91.96%</text>
<circle cx="26" cy="96" r="5" fill="#E34C26" />
<text x="50" y="100" fill="white" font-size="13" font-family="Segoe UI,Roboto,Helvetica,Arial">HTML</text>
<rect x="160" y="92" width="270" height="12" rx="7" fill="#0b1220"/>
<rect x="160" y="92" width="9.612" height="12" rx="7" fill="#E34C26"/>
<text x="445" y="102" fill="#bfe6ff" font-size="12" font-family="Segoe UI,Roboto,Helvetica,Arial">3.56%</text>
<circle cx="26" cy="128" r="5" fill="#3572A5" />
<text x="50" y="132" fill="white" font-size="13" font-family="Segoe UI,Roboto,Helvetica,Arial">Python</text>
<rect x="160" y="124" width="270" height="12" rx="7" fill="#0b1220"/>
<rect x="160" y="124" width="9.234" height="12" rx="7" fill="#3572A5"/>
<text x="445" y="134" fill="#bfe6ff" font-size="12" font-family="Segoe UI,Roboto,Helvetica,Arial">3.42%</text>
<circle cx="26" cy="160" r="5" fill="#6b7280" />
<text x="50" y="164" fill="white" font-size="13" font-family="Segoe UI,Roboto,Helvetica,Arial">Other</text>
<rect x="160" y="156" width="270" height="12" rx="7" fill="#0b1220"/>
<rect x="160" y="156" width="2.8890000000000002" height="12" rx="7" fill="#6b7280"/>
<text x="445" y="166" fill="#bfe6ff" font-size="12" font-family="Segoe UI,Roboto,Helvetica,Arial">1.07%</text>
</svg>